<?xml version="1.0" encoding="UTF-8"?> <svg xmlns="http://www.w3.org/2000/svg" width="202" height="81" viewBox="0 0 202 81" fill="none"><g clip-path="url(#clip0_12005_167)"><mask id="mask0_12005_167" style="mask-type:luminance" maskUnits="userSpaceOnUse" x="22" y="27" width="158" height="28"><path d="M180 27.644H22V54.194H180V27.644Z" fill="white"></path></mask><g mask="url(#mask0_12005_167)"><path d="M51.7028 27.7712H48.4006V53.9837H51.7028V27.7712Z" fill="#F90D29"></path><path d="M81.3559 27.7712H78.0537V53.9837H81.3559V27.7712Z" fill="#F90D29"></path><path d="M44.7611 53.9837H41.2487L33.3778 32.3676L25.5123 53.9837H22L31.5414 27.7712H35.2197L44.7611 53.9782V53.9837Z" fill="#F90D29"></path><path d="M66.3273 53.9229H56.2605V50.6208H66.3273C68.5785 50.6208 70.4039 48.7899 70.4039 46.5443C70.4039 44.2986 68.573 42.4622 66.3273 42.4622H63.5728C59.5018 42.4622 56.1941 39.1545 56.1941 35.0835C56.1941 31.0125 59.5018 27.7048 63.5728 27.7048H73.706V31.007H63.5728C61.3216 31.007 59.4962 32.8378 59.4962 35.0835C59.4962 37.3292 61.3271 39.16 63.5728 39.16H66.3273C70.3983 39.16 73.706 42.4677 73.706 46.5387C73.706 50.6097 70.3983 53.9174 66.3273 53.9174V53.9229Z" fill="#F90D29"></path><path d="M90.5763 27.7767H89.8904V53.9727H90.5763V27.7767Z" fill="#0D0D0D"></path><path d="M102.103 38.5294L100.765 35.1167H96.4615L95.1395 38.5294H93.8784L98.1209 27.7546H99.1718L103.392 38.535H102.098L102.103 38.5294ZM100.378 33.9938L99.1276 30.6695C98.9672 30.2492 98.8012 29.7348 98.6298 29.1208C98.5191 29.591 98.3698 30.1054 98.1651 30.6695L96.904 33.9938H100.378Z" fill="#0D0D0D"></path><path d="M104.947 38.535V27.7988H106.197V38.535H104.947Z" fill="#0D0D0D"></path><path d="M119.25 35.6754C119.25 36.6212 118.907 37.3568 118.221 37.8878C117.536 38.4188 116.606 38.6788 115.434 38.6788C114.161 38.6788 113.182 38.5129 112.497 38.1865V36.9807C112.939 37.1688 113.415 37.3126 113.935 37.4232C114.455 37.5283 114.969 37.5836 115.478 37.5836C116.308 37.5836 116.938 37.4232 117.359 37.1079C117.779 36.7927 117.989 36.3557 117.989 35.7915C117.989 35.4209 117.917 35.1167 117.768 34.8788C117.619 34.641 117.37 34.4198 117.021 34.2206C116.673 34.0215 116.142 33.7947 115.423 33.5403C114.427 33.1808 113.708 32.7604 113.282 32.2681C112.856 31.7814 112.64 31.1397 112.64 30.3543C112.64 29.5246 112.95 28.8664 113.57 28.3796C114.189 27.8929 115.013 27.644 116.037 27.644C117.06 27.644 118.083 27.8376 118.979 28.2303L118.592 29.3144C117.707 28.9438 116.844 28.7558 116.009 28.7558C115.351 28.7558 114.831 28.8996 114.46 29.1817C114.09 29.4638 113.902 29.862 113.902 30.3654C113.902 30.7359 113.968 31.0402 114.106 31.278C114.244 31.5159 114.471 31.7316 114.798 31.9307C115.124 32.1298 115.622 32.3455 116.291 32.5889C117.419 32.9927 118.194 33.4186 118.614 33.8832C119.035 34.3423 119.25 34.9397 119.25 35.6754Z" fill="#0D0D0D"></path><path d="M127.503 38.535H121.518V27.7988H127.503V28.9051H122.768V32.3621H127.215V33.4628H122.768V37.4121H127.503V38.5294V38.535Z" fill="#0D0D0D"></path><path d="M134.555 28.7613C133.377 28.7613 132.442 29.154 131.762 29.9394C131.082 30.7249 130.739 31.7979 130.739 33.1642C130.739 34.5304 131.065 35.6532 131.729 36.4221C132.387 37.1909 133.327 37.5726 134.544 37.5726C135.291 37.5726 136.148 37.4398 137.105 37.1688V38.264C136.358 38.5405 135.446 38.6843 134.351 38.6843C132.769 38.6843 131.552 38.2031 130.689 37.2462C129.832 36.2893 129.4 34.9231 129.4 33.1586C129.4 32.0524 129.605 31.0844 130.02 30.2492C130.434 29.4195 131.032 28.7779 131.812 28.3243C132.592 27.8708 133.51 27.644 134.566 27.644C135.689 27.644 136.674 27.8486 137.52 28.258L136.989 29.331C136.176 28.9494 135.363 28.7558 134.55 28.7558L134.555 28.7613Z" fill="#0D0D0D"></path><path d="M147.626 27.7988V34.7461C147.626 35.9685 147.255 36.9309 146.514 37.6334C145.773 38.3358 144.761 38.6843 143.466 38.6843C142.172 38.6843 141.176 38.3303 140.468 37.6278C139.76 36.9254 139.406 35.9519 139.406 34.7184V27.7988H140.656V34.8014C140.656 35.6974 140.9 36.3833 141.392 36.8645C141.879 37.3458 142.603 37.5836 143.549 37.5836C144.495 37.5836 145.153 37.3402 145.64 36.859C146.127 36.3778 146.376 35.6864 146.376 34.7848V27.7988H147.626Z" fill="#0D0D0D"></path><path d="M151.791 34.0713V38.535H150.541V27.7988H153.483C154.8 27.7988 155.773 28.0533 156.404 28.5566C157.034 29.06 157.349 29.8177 157.349 30.83C157.349 32.2515 156.63 33.2084 155.192 33.7062L158.107 38.5294H156.63L154.031 34.0657H151.791V34.0713ZM151.791 32.9982H153.5C154.379 32.9982 155.026 32.8212 155.436 32.4727C155.845 32.1243 156.055 31.5988 156.055 30.8963C156.055 30.1939 155.845 29.6739 155.43 29.3642C155.01 29.0489 154.34 28.894 153.417 28.894H151.796V32.9982H151.791Z" fill="#0D0D0D"></path><path d="M159.911 38.535V27.7988H161.161V38.535H159.911Z" fill="#0D0D0D"></path><path d="M167.483 38.535H166.233V28.9051H162.831V27.7988H170.879V28.9051H167.477V38.5294L167.483 38.535Z" fill="#0D0D0D"></path><path d="M175.785 33.1641L178.65 27.7988H180L176.416 34.3699V38.535H175.155V34.4308L171.582 27.7988H172.948L175.791 33.1641H175.785Z" fill="#0D0D0D"></path><path d="M95.3555 54.0446V43.3085H96.6055V54.0446H95.3555Z" fill="#0D0D0D"></path><path d="M108.304 54.0446H106.883L101.014 45.0342H100.953C101.03 46.0907 101.069 47.0587 101.069 47.9437V54.0446H99.9187V43.3085H101.329L107.181 52.2802H107.242C107.231 52.1474 107.209 51.7215 107.176 51.008C107.143 50.2889 107.131 49.78 107.137 49.4703V43.3085H108.304V54.0446Z" fill="#0D0D0D"></path><path d="M117.69 51.1905C117.69 52.1363 117.347 52.872 116.662 53.403C115.976 53.934 115.046 54.194 113.874 54.194C112.602 54.194 111.623 54.028 110.937 53.7017V52.4959C111.379 52.6839 111.855 52.8277 112.375 52.9384C112.895 53.0435 113.409 53.0988 113.918 53.0988C114.748 53.0988 115.378 52.9384 115.799 52.6231C116.219 52.3078 116.429 51.8708 116.429 51.3066C116.429 50.936 116.352 50.6318 116.208 50.394C116.059 50.1561 115.81 49.9349 115.461 49.7358C115.113 49.5366 114.576 49.3099 113.863 49.0554C112.862 48.6959 112.148 48.2755 111.722 47.7832C111.291 47.2965 111.081 46.6549 111.081 45.8694C111.081 45.0397 111.39 44.3815 112.015 43.8948C112.635 43.408 113.459 43.1591 114.482 43.1591C115.506 43.1591 116.529 43.3527 117.425 43.7454L117.038 44.8296C116.153 44.459 115.29 44.2709 114.455 44.2709C113.791 44.2709 113.276 44.4147 112.906 44.6968C112.535 44.9789 112.347 45.3771 112.347 45.8805C112.347 46.2511 112.414 46.5553 112.552 46.7931C112.69 47.031 112.922 47.2467 113.249 47.4458C113.575 47.645 114.073 47.8607 114.742 48.1041C115.871 48.5078 116.645 48.9337 117.065 49.3984C117.486 49.8575 117.701 50.4548 117.701 51.1905H117.69Z" fill="#0D0D0D"></path><path d="M123.565 54.0446H122.315V44.4203H118.913V43.314H126.961V44.4203H123.559V54.0446H123.565Z" fill="#0D0D0D"></path><path d="M128.958 54.0446V43.3085H130.208V54.0446H128.958Z" fill="#0D0D0D"></path><path d="M136.829 54.0446H135.578V44.4203H132.177V43.314H140.225V44.4203H136.823V54.0446H136.829Z" fill="#0D0D0D"></path><path d="M150.325 43.314V50.2613C150.325 51.4837 149.954 52.4461 149.219 53.1486C148.478 53.851 147.465 54.1995 146.171 54.1995C144.877 54.1995 143.881 53.8455 143.173 53.143C142.465 52.4406 142.111 51.4671 142.111 50.2336V43.3196H143.361V50.3221C143.361 51.2182 143.605 51.904 144.097 52.3853C144.584 52.8665 145.303 53.1043 146.254 53.1043C147.205 53.1043 147.858 52.861 148.345 52.3797C148.832 51.8985 149.08 51.2071 149.08 50.3055V43.314H150.331H150.325Z" fill="#0D0D0D"></path><path d="M156.846 54.0446H155.596V44.4203H152.194V43.314H160.242V44.4203H156.841V54.0446H156.846Z" fill="#0D0D0D"></path><path d="M168.218 54.0446H162.234V43.3085H168.218V44.4147H163.484V47.8717H167.931V48.9725H163.484V52.9218H168.218V54.0391V54.0446Z" fill="#0D0D0D"></path></g></g><defs><clipPath id="clip0_12005_167"><rect width="158" height="26.55" fill="white" transform="translate(22 27.644)"></rect></clipPath></defs></svg> 